# xmcd CD database file
#
# Track frame offsets:
#	150
#	13362
#	24632
#	34051
#	48475
#	58735
#	72050
#	85556
#	100550
#	111607
#
# Disc length: 1657 seconds
#
# Revision: 2
# Processed by: cddbd v1.5.1PL2 Copyright (c) Steve Scherf et al.
# Submitted via: CDex 1.51
#
DISCID=8006770a
DTITLE=Raymond Harris - Hurt by the Best
DYEAR=2004
DGENRE=Country
TTITLE0=Don't Send the Invitation
TTITLE1=Hot Country Nights
TTITLE2=Jack Daniels
TTITLE3=Hurt by the Best
TTITLE4=L.O.V.E.
TTITLE5=Meanwhile, Back at the Ranch
TTITLE6=Not a Brick out of Place
TTITLE7=Leave out the Leaving
TTITLE8=It's All Coming Back To Me
TTITLE9=Country to the Core
EXTD=YEAR: 2004
EXTT0=
EXTT1=
EXTT2=
EXTT3=
EXTT4=
EXTT5=
EXTT6=
EXTT7=
EXTT8=
EXTT9=
PLAYORDER=
